<?xml version="1.0" encoding="UTF-8" standalone="no"?>
<!-- Created with Inkscape (http://www.inkscape.org/) -->
<svg id="svg2985" xmlns:inkscape="http://www.inkscape.org/namespaces/inkscape" xmlns:rdf="http://www.w3.org/1999/02/22-rdf-syntax-ns#" xmlns="http://www.w3.org/2000/svg" sodipodi:docname="এশিয়ান_টিভি.png" height="131" width="96" version="1.1" xmlns:cc="http://creativecommons.org/ns#" xmlns:dc="http://purl.org/dc/elements/1.1/" inkscape:version="0.48.4 r9939" xmlns:sodipodi="http://sodipodi.sourceforge.net/DTD/sodipodi-0.dtd">
 <metadata id="metadata2991">
  <rdf:RDF>
   <cc:Work rdf:about="">
    <dc:format>image/svg+xml</dc:format>
    <dc:type rdf:resource="http://purl.org/dc/dcmitype/StillImage"/>
    <dc:title/>
   </cc:Work>
  </rdf:RDF>
 </metadata>
 <sodipodi:namedview id="namedview2987" bordercolor="#666666" inkscape:pageshadow="2" guidetolerance="10" pagecolor="#ffffff" gridtolerance="10" inkscape:window-maximized="1" inkscape:zoom="1" objecttolerance="10" borderopacity="1" inkscape:current-layer="svg2985" inkscape:cx="123.77872" inkscape:cy="106.20113" inkscape:window-y="-8" inkscape:window-x="-8" inkscape:window-width="1600" showgrid="false" inkscape:pageopacity="0" inkscape:window-height="838"/>
 <g id="g3001" transform="matrix(0.16860891,0,0,0.16860891,-14.812459,-9.11502)">
  <path id="path3005" inkscape:connector-curvature="0" fill="#f20001" d="M102.29,826.3c-2.928-0.57-9.111-6.82-10.048-10.16-0.408-1.45-0.742-22.25-0.742-46.21v-43.574l2.6608-4.0198c1.4634-2.2109,4.3884-4.8776,6.5-5.9261,3.7429-1.8584,10.492-1.9133,268.84-2.1871,184.2-0.1952,266.31,0.0424,269.31,0.77919,4.8071,1.1826,10.432,5.755,12.134,9.8628,0.7823,1.8886,1.034,16.114,0.83789,47.347-0.27197,43.307-0.34228,44.73-2.3422,47.408-1.134,1.5182-3.3045,3.6883-4.8233,4.8222l-2.7615,2.0618-268.68,0.11657c-147.77,0.0641-269.67-0.0776-270.89-0.31496zm81.71-35.052-0.005-24.75-3.4902-3.8002c-1.9196-2.0901-6.53-5.2401-10.245-7-6.467-3.0634-7.3654-3.2136-21.07-3.5246l-14.315-0.32483,0.31482,3.8248,0.31,3.82,13.72,0.5c12.019,0.43785,13.967,0.74861,15.674,2.5,1.0721,1.1,2.0959,2.9,2.2752,4,0.30913,1.897-0.39485,2.031-13.674,2.6013-12.915,0.55469-14.388,0.81929-19,3.414-7.7038,4.3337-10.37,6.5729-13.559,11.388-6.178,9.327-2.9777,18.372,9.2842,26.241,7.6204,4.89,12.208,5.6676,34.025,5.7664l19.76,0.09v-24.75zm-39.246,17.547c-2.0629-0.54789-5.1004-2.2569-6.75-3.7979-2.92-2.73-3-3.04-3-12.26,0-8.641,0.20724-9.6696,2.3872-11.849,3.5866-3.5853,9.8565-5.007,20.627-4.677l9.48,0.29,0.34035,13.362c0.18719,7.3489,0.0543,14.886-0.29532,16.75l-0.63,3.39-9.2047-0.10335c-5.0626-0.0569-10.893-0.55163-12.955-1.0995zm219.25-17.49v-24.693l-5.2552-5.0901c-7.48-7.26-15.02-9.53-31.58-9.53h-12.282l0.31036,3.75,0.31037,3.75,13.051,0.5c14.39,0.55,18.45,1.95,18.45,6.36,0,2.2747-0.20725,2.3209-11.25,2.506-12.523,0.20986-17.27,1.1811-23.439,4.795-13.305,7.7947-17.897,18.772-11.683,27.93,2.9459,4.341,3.9874,5.2551,10.307,9.0467,7.4027,4.4412,12.032,5.1734,33.314,5.2698l19.75,0.09v-24.693zm-38.696,17.538c-2.3077-0.51757-5.5702-2.2249-7.25-3.7941-2.99-2.8-3.05-3.06-3.05-12.36,0-8.6011,0.2165-9.7022,2.3023-11.71,3.6643-3.5268,9.3717-4.9626,19.791-4.9789l9.5936-0.0151,0.66308,16.085c0.36469,8.8465,0.40849,16.497,0.0973,17-0.72282,1.1695-16.628,0.99728-22.143-0.23982zm-90.244,2.1064c12.885-3.719,20.545-12.65,18.035-21.028-1.8198-6.0741-8.006-10.146-25.735-16.94-7.63-2.93-12.36-6.25-12.36-8.67,0-0.57705,1.1864-2.2356,2.6364-3.6856,2.3824-2.3824,3.3628-2.6364,10.179-2.6364,4.1484,0,8.9868,0.52222,10.752,1.1605,2.7844,1.0069,3.5536,0.88959,5.8109-0.88596,1.9636-1.5446,2.2976-2.2816,1.3618-3.0053-2.923-2.2605-11.022-3.4905-20.481-3.1106-8.1305,0.32657-10.775,0.85875-15.323,3.0842-8.35,4.11-11.44,7.82-11.44,13.78,0,3.9971,0.51331,5.4045,2.8675,7.8617,1.5771,1.6462,4.2771,3.5211,6,4.1666,1.7229,0.64547,4.0325,1.5627,5.1325,2.0383,1.1,0.47562,5.15,1.8531,9,3.061,12.435,3.9013,17.173,8.6784,14.34,14.458-2.5569,5.2169-6.1694,6.9164-14.664,6.8984-5.4961-0.0116-8.7737-0.55617-11.539-1.9171-3.7507-1.8461-3.9596-1.8483-7.25-0.0763-1.8634,1.0035-3.388,2.1426-3.388,2.5312,0,1.1956,8.3166,3.9598,14.568,4.8419,7.3483,1.0369,13.023,0.53193,21.492-1.9123zm48.94-28v-31.04l-8.25,0.29044-8.25,0.29044-0.28038,28.5c-0.1542,15.675-0.0331,29.512,0.26905,30.75,0.51268,2.0995,1.0833,2.25,8.5304,2.25h7.98v-31.04zm110.77,4.79,0.26-25.75,10.52,0c10.726,0,15.823,1.2164,19.664,4.6931,1.6088,1.4559,1.7866,3.7334,1.7866,22.88,0,11.695,0.27314,21.975,0.60699,22.845,0.48238,1.2571,2.2234,1.5818,8.481,1.5818,7.5415,0,7.9002-0.1044,8.4945-2.4724,0.34129-1.3598,0.46237-11.822,0.26905-23.25l-0.35-20.78-2.9679-3.7097c-1.6324-2.0403-5.0929-4.8662-7.6901-6.2798-8.9794-4.8872-12.813-5.4881-35.092-5.4997l-20.75-0.01v31.04,31.04l8.25-0.29044,8.25-0.29044,0.26688-25.75zm153.79,23.871c0.32842-1.3085,0.4495-3.671,0.26905-5.25l-0.33-2.87-9.5-0.57c-7.7871-0.46431-10.167-1.0052-13.198-3-2.034-1.3385-3.9404-3.3336-4.2364-4.4336-0.29599-1.1-0.54431-9.0748-0.55182-17.722l-0.01-15.72,13.75-0.28,13.75-0.28v-4.5-4.5l-13.75-0.27822-13.75-0.27822v-12.972c0-9.7158-0.31375-12.969-1.25-12.962-0.6875,0.005-4.0806,1.8052-7.5402,4-3.46,2.19-6.72,3.99-7.25,3.99-0.54,0-0.96,3.92-0.96,9v9h-5.5-5.5v5,5h5.5,5.5v16.532c0,18.506,0.66275,21.316,6.114,25.922,7.1107,6.0078,17.655,9.1507,31.617,9.4239,5.7746,0.11301,6.2747-0.0523,6.8281-2.2572zm59.05-4.62c5.68-16.21,18.39-53.79,18.39-54.36,0-0.35-1.96-0.64-4.35-0.64-5.1407,0-4.1189-1.9982-13.684,26.76-3.5234,10.593-6.7852,19.134-7.2483,18.979-0.81196-0.27065-11.624-23.556-17.872-38.49l-3.0333-7.25h-8.4741c-8.3246,0-8.462,0.0397-7.7876,2.25,0.72591,2.3794,22.705,52.28,25.124,57.041,1.3879,2.7314,1.5816,2.785,9.0384,2.5l7.61-0.29,2.28-6.5zm-325.83-73.56c6.5485-4.5867-2.5476-10.762-11.076-7.5199-4.2976,1.6339-4.4819,6.4121-0.31238,8.0969,3.418,1.3811,8.9964,1.0984,11.388-0.57699zm46.22-71.49c-14.418-0.85266-29.958-3.079-42-6.0174-2.475-0.60391-6.3-1.3325-8.5-1.619-2.2-0.28654-4.4275-0.9249-4.95-1.4186-0.52-0.49-1.96-0.89-3.19-0.89-1.2325,0-2.5191-0.45-2.859-1-0.33992-0.55-1.7226-1-3.0726-1s-3.2359-0.39476-4.191-0.87724c-0.95504-0.48249-3.5364-1.4122-5.7364-2.0661-2.2-0.65387-4.9-1.5489-6-1.989-1.1-0.44006-3.125-1.2464-4.5-1.7919-1.375-0.54549-4.455-1.9557-6.8445-3.1338-2.39-1.18-5.17-2.14-6.17-2.14-1.0022,0-1.9722-0.3375-2.1555-0.75-0.39265-0.88346-12.7-7.25-14.016-7.25-0.49574,0-1.7901-0.82802-2.8764-1.84s-3.205-2.465-4.7082-3.2288c-4.17-2.13-22.44-14.45-24.93-16.82-1.21-1.16-2.68-2.11-3.25-2.11s-1.04-0.45-1.04-1-0.49446-1-1.0988-1c-0.60433,0-2.3599-1.35-3.9012-3s-3.0643-3-3.3844-3c-1.9202,0-23.85-22.2-30.623-31-1.9049-2.475-3.9199-5.0469-4.4778-5.7153-2.0956-2.5107-3.092-3.9048-5.9208-8.2847-1.5985-2.475-3.7595-5.7511-4.8022-7.2802-2.68-3.92-13.31-25.32-15.27-30.72-4.97-13.71-10.618-35.55-12.163-47-1.234-9.15-1.476-37.19-0.392-45.5,7.315-56.1,43.355-114.6,89.175-144.75,13.59-8.93,38.46-20.42,51.85-23.94,40.065-10.54,73.274-10.421,105.5,0.37853,13.076,4.3819,31.495,14.621,40.863,22.716,14.81,12.797,25.235,29.485,28.72,45.972,2.4041,11.375-0.13187,30.751-5.2521,40.128-4.2864,7.8503-13.491,19-15.685,19-0.55606,0-1.2657,0.7875-1.5769,1.75-0.31123,0.9625-1.5791,2.2466-2.8174,2.8535-1.2383,0.60691-4.8847,2.5194-8.1031,4.25s-6.6793,3.1465-7.691,3.1465-2.0816,0.39185-2.3776,0.87077c-0.61371,0.993-9.1294,2.3297-15.08,2.367-6.077,0.0381-16.489-1.4117-17.087-2.3792-0.28-0.48-1.31-0.87-2.27-0.87-2.034,0-9.4304-3.4126-13.283-6.1287-1.4599-1.0292-3.5708-1.8713-4.691-1.8713-1.1201,0-2.3147-0.45-2.6546-1-0.33992-0.55-1.4915-1-2.559-1-1.08,0-1.95-0.48-1.95-1.06,0-0.70893-4.0352-0.9144-12.25-0.62378-14.101,0.49884-18.204,1.2135-21.904,3.8148-1.4599,1.0264-3.1474,1.8661-3.75,1.8661s-1.0956,0.45-1.0956,1-0.44486,1-0.98857,1c-1.1669,0-4.4752,2.5937-7.3341,5.75-1.1209,1.2375-2.5194,2.2606-3.1077,2.2736-2.152,0.0474-12.17,14.21-15.725,22.23-17.203,38.812,12.323,88.549,62.655,105.55,26.39,8.9119,53.07,10.489,80,4.7284,11.3-2.417,12.741-2.832,24.5-7.0546,6.9781-2.5058,25.873-11.205,27-12.43,0.275-0.29909,2.525-1.6289,5-2.9552,12.003-6.4322,30.514-21.195,43.302-34.536,23.691-24.714,44.35-72.297,48.651-112.05,1.1772-10.882,0.75465-31.321-0.90966-44-2.1209-16.157-10.072-42.612-16.982-56.5-0.95778-1.925-2.0469-4.7375-2.4203-6.25s-1.1203-2.75-1.6599-2.75c-0.54,0-0.98-0.9-0.98-2s-0.36726-2-0.81613-2-2.1066-2.7-3.6839-6-3.1628-6-3.5234-6c-0.36059,0-1.1759-1.1419-1.8118-2.5376-0.63592-1.3957-1.6165-3.0832-2.1791-3.75-3.6836-4.3663-4.9877-6.0911-5.0017-6.6154-0.009-0.32834-1.2463-1.9967-2.75-3.7074s-4.309-5.0152-6.234-7.3432c-2.9858-3.6109-9.8032-10.515-19.547-19.796-1.2992-1.2375-2.6025-2.25-2.8962-2.25-0.50217,0-1.6384-0.88012-6.8911-5.3381-1.1912-1.011-3.4033-2.5705-4.9158-3.4656-1.51-0.88-2.75-1.96-2.75-2.4,0-0.43-0.68-0.78-1.5-0.78-0.825,0-1.5-0.45-1.5-1s-0.675-1-1.5-1-1.5-0.45-1.5-1-0.7875-1.0006-1.75-1.0012c-0.9625-0.00067-3.0361-1.1073-4.608-2.4591-2.4597-2.1154-16.855-9.5813-24.642-12.78-3.3811-1.389-7.0358-2.8483-9.75-3.8932-4.3727-1.6834-7.7704-3.1099-9.4864-3.9829-0.95-0.49-2.84-0.89-4.19-0.89s-2.7327-0.45-3.0726-1c-0.33992-0.55-1.9149-1-3.5-1s-3.1226-0.38935-3.4167-0.86522-2.2332-1.1901-4.309-1.5873c-2.0758-0.39713-5.7993-1.1566-8.2743-1.6878-18.603-3.9926-31.634-5.1649-57.5-5.173-22.316-0.007-31.78,0.66969-47,3.3606-3.3,0.58343-8.1375,1.3049-10.75,1.6033-2.6125,0.29837-4.75,0.90179-4.75,1.3409,0,0.43915-1.9125,1.0814-4.25,1.4273-10.458,1.5475-11.75,1.8428-11.75,2.6862,0,0.49223-1.125,0.89496-2.5,0.89496s-2.5,0.45-2.5,1-1.1311,1-2.5136,1c-2.4203,0-3.3307,0.31487-8.2229,2.8439-1.23,0.63587-3.1425,1.1561-4.25,1.1561s-2.0136,0.45-2.0136,1-1.125,1-2.5,1-2.5,0.45-2.5,1-1.125,1-2.5,1-2.5,0.45-2.5,1-0.9,1-2,1-2,0.45-2,1-0.61284,1-1.3619,1c-0.74902,0-4.6865,1.727-8.75,3.8378-6.6577,3.4583-9.071,4.785-16.95,9.3182-1.2848,0.73922-3.2314,2.1315-4.3256,3.094s-2.5796,1.75-3.3009,1.75c-0.72129,0-1.3114,0.45-1.3114,1s-0.675,1-1.5,1-1.5,0.45-1.5,1-0.50972,1-1.1327,1c-0.62299,0-1.8605,0.79057-2.75,1.7568-0.88952,0.96625-2.8548,2.3923-4.3673,3.169-1.5125,0.77668-2.75,1.7861-2.75,2.2432,0,0.45706-0.4539,0.83102-1.0087,0.83102-0.88764,0-4.6911,2.9995-8.5593,6.75-0.70907,0.6875-1.4742,1.25-1.7002,1.25-2.22,0.01-34.74,32.97-34.74,35.21,0,0.44-0.426,0.8-0.946,0.8-1.657,0,7.1828-22.261,12.817-32.276,13.847-24.615,29.491-45.06,47.47-62.041,19.878-18.774,49.634-39.123,71.304-48.763,3.7701-1.6771,8.341-3.7276,10.158-4.5568,13.806-6.3014,43.437-15.634,61.584-19.396,21.672-4.4932,26.52-5.0414,49.613-5.6104,51.241-1.2625,87.914,4.839,130,21.629,28.712,11.455,53.924,26.907,78.5,48.113,54.042,46.631,82.764,100.49,94.073,176.4,1.1281,7.5725,1.7832,20.602,2.1024,41.816,0.47868,31.812,0.58648,30.305-3.7185,52.011-0.52646,2.6545-0.9572,6.0628-0.9572,7.574,0,3.803-7.2581,32.771-10.799,43.1-4.993,14.565-7.6724,21.487-8.4511,21.833-0.4125,0.18334-0.75,0.99425-0.75,1.802,0,1.9101-13.93,29.762-15.104,30.198-0.49306,0.18334-0.89648,1.1958-0.89648,2.25s-0.41968,1.9167-0.93261,1.9167c-0.51294,0-1.2096,0.87272-1.5482,1.9394-0.83862,2.6422-15.928,24.975-19.373,28.673-0.97917,1.051-2.2002,2.6528-2.7134,3.5596-0.95009,1.6788-9.1011,11.128-15.433,17.891-1.925,2.0561-4.9077,5.2455-6.6282,7.0875-2.6915,2.8816-9.0655,8.781-20.365,18.849-5.1272,4.5683-7.0205,6-7.9345,6-0.49788,0-1.0552,0.3375-1.2386,0.75-0.42389,0.95377-8.5148,7.25-9.3165,7.25-0.33024,0-1.4892,0.82802-2.5755,1.84s-3.205,2.4745-4.7082,3.25c-1.5032,0.77547-3.6055,2.1974-4.6717,3.16-1.0662,0.9625-2.5287,1.75-3.25,1.75-0.72129,0-1.3114,0.45-1.3114,1s-0.675,1-1.5,1-1.5,0.36601-1.5,0.81335c0,0.44735-1.575,1.4313-3.5,2.1866-1.925,0.75531-3.5,1.7393-3.5,2.1866,0,0.44734-0.675,0.81335-1.5,0.81335s-1.5016,0.3375-1.5036,0.75-2.4754,1.875-5.4964,3.25c-3.0211,1.375-5.4945,2.8375-5.4964,3.25-0.002,0.4125-0.85786,0.75-1.902,0.75-1.0442,0-4.4648,1.35-7.6016,3-3.1367,1.65-6.3324,3-7.1016,3-0.76915,0-1.3984,0.45-1.3984,1s-0.90611,1-2.0136,1-2.795,0.3975-3.75,0.88333c-0.95504,0.48583-3.0864,1.4383-4.7364,2.1167-1.65,0.67834-3.7814,1.6308-4.7364,2.1167-0.95504,0.48583-2.616,0.88333-3.691,0.88333s-2.2327,0.45-2.5726,1c-0.33992,0.55-1.6473,1-2.9054,1-1.258,0-3.7335,0.72145-5.5011,1.6032-1.7675,0.88176-4.9976,1.8425-7.178,2.1349-2.1804,0.29245-4.2049,0.92101-4.4989,1.3968-0.28,0.48-1.84,0.87-3.46,0.87s-2.94,0.45-2.94,1-2.2234,1-4.941,1c-2.7175,0-5.2191,0.45-5.559,1-0.33992,0.55-2.4518,1-4.693,1s-5.7022,0.42039-7.691,0.9342c-11.765,3.0394-44.55,4.4711-69.116,3.0183z"/>
  <path id="path3003" inkscape:connector-curvature="0" fill="#2b0806" d="M337,673.87c-49.15-1.58-96.78-15.71-135.79-40.29-56.01-35.29-90.04-80.95-102.55-137.63-2.5848-11.709-4.4428-25.953-3.2376-24.819,0.3692,0.34731,1.7367,5.7473,3.0389,12,2.2206,10.663,5.2803,21.416,9.0679,31.869,1.9556,5.3969,12.589,26.803,15.26,30.72,1.0427,1.5291,3.2037,4.8052,4.8022,7.2802,2.8288,4.3798,3.8252,5.774,5.9208,8.2847,0.55791,0.66842,2.5729,3.2403,4.4778,5.7153,6.773,8.8001,28.703,31,30.623,31,0.32008,0,1.843,1.35,3.3844,3,1.5413,1.65,3.2969,3,3.9012,3,0.60433,0,1.0988,0.45,1.0988,1s0.46882,1,1.0418,1c0.573,0,2.0355,0.94808,3.25,2.1068,2.4914,2.3771,20.757,14.698,24.941,16.824,1.5032,0.7638,3.6219,2.2168,4.7082,3.2288s2.3807,1.84,2.8764,1.84c1.3152,0,13.623,6.3665,14.016,7.25,0.18334,0.4125,1.1533,0.75,2.1555,0.75s3.7772,0.9639,6.1667,2.142,5.4695,2.5883,6.8445,3.1338c1.375,0.54549,3.4,1.3518,4.5,1.7919,1.1,0.44005,3.8,1.3351,6,1.989,2.2,0.65388,4.7814,1.5836,5.7364,2.0661,0.95504,0.48248,2.841,0.87724,4.191,0.87724s2.7327,0.45,3.0726,1c0.33992,0.55,1.6265,1,2.859,1s2.6685,0.40391,3.191,0.89757c0.5225,0.49367,2.75,1.132,4.95,1.4186,2.2,0.28655,6.025,1.013,8.5,1.6144,21.906,5.3229,50.402,7.4546,80.811,6.0451,10.829-0.50192,22.164-1.3901,25.189-1.9736,3.025-0.58359,8.0947-1.3274,11.266-1.6529,3.1713-0.32551,6.0104-0.98723,6.309-1.4705,0.29-0.49,2.76-0.89,5.48-0.89s4.94-0.45,4.94-1,1.3234-1,2.941-1c1.6175,0,3.1816-0.38928,3.4756-0.86506,0.29405-0.47578,2.3186-1.1043,4.4989-1.3968,2.1804-0.29244,5.4105-1.2532,7.178-2.1349,1.7676-0.88177,4.243-1.6032,5.5011-1.6032,1.258,0,2.5655-0.45,2.9054-1,0.33992-0.55,1.4976-1,2.5726-1s2.7359-0.3975,3.691-0.88333c0.95504-0.48583,3.0864-1.4383,4.7364-2.1167,1.65-0.67834,3.7814-1.6308,4.7364-2.1167,0.95504-0.48583,2.6425-0.88333,3.75-0.88333s2.0136-0.45,2.0136-1,0.6293-1,1.3984-1c0.76915,0,3.9648-1.35,7.1016-3,3.1367-1.65,6.5574-3,7.6016-3s1.9-0.3375,1.902-0.75,2.4754-1.875,5.4964-3.25c3.0211-1.375,5.4945-2.8375,5.4964-3.25,0.002-0.4125,0.67856-0.75,1.5036-0.75,0.825,0,1.5-0.36601,1.5-0.81335,0-0.44735,1.575-1.4313,3.5-2.1866,1.925-0.75531,3.5-1.7393,3.5-2.1866,0-0.44734,0.675-0.81335,1.5-0.81335s1.5-0.45,1.5-1,0.59015-1,1.3114-1c0.72129,0,2.1838-0.7875,3.25-1.75s3.1685-2.3845,4.6717-3.16c1.5032-0.77547,3.6219-2.238,4.7082-3.25s2.2453-1.84,2.5755-1.84c0.80173,0,8.8926-6.2962,9.3165-7.25,0.18334-0.4125,0.74069-0.75,1.2386-0.75,0.91399,0,2.8073-1.4317,7.9345-6,11.3-10.068,17.674-15.968,20.365-18.849,1.7205-1.842,4.7032-5.0314,6.6282-7.0875,6.3319-6.7632,14.483-16.213,15.433-17.891,0.51317-0.90675,1.7342-2.5086,2.7134-3.5596,3.445-3.6977,18.534-26.031,19.373-28.673,0.34-1.07,1.03-1.94,1.55-1.94,0.51,0,0.93-0.86,0.93-1.92,0-1.0542,0.40342-2.0667,0.89648-2.25,1.17-0.43,15.1-28.28,15.1-30.19,0-0.80778,0.3375-1.6187,0.75-1.802,0.77866-0.34607,3.4581-7.2685,8.4511-21.833,3.6-10.51,10.8-39.33,10.8-43.24,0-1.5846,0.42765-4.768,0.95034-7.074,0.52268-2.306,1.2728-6.4428,1.667-9.1928,0.39419-2.75,0.90272-4.196,1.1301-3.2132,0.62139,2.686-2.5284,25.63-5.3622,39.059-12.601,59.718-39.676,110.1-81.81,152.23-8.8416,8.8411-20.392,19.497-25.667,23.68-30.258,23.992-70.299,44.583-105.54,54.275-34.674,9.5345-59.98,12.513-96.364,11.343zm-242.33-205.54c-0.36667-0.36666-0.62608-2.0542-0.57648-3.75l0.09019-3.0833,0.96682,3.3597c0.96623,3.3576,0.77632,4.7305-0.48053,3.4737zm142.16-23.83c-1.2393-1.9904,1.8636-17.172,5.0075-24.5,3.1338-7.3047,13.589-21.904,15.732-21.968,0.58832-0.0176,1.9868-1.0445,3.1077-2.282,2.8589-3.1563,6.1672-5.75,7.3341-5.75,0.54371,0,0.98857-0.45,0.98857-1s0.49303-1,1.0956-1c0.6026,0,2.2901-0.83973,3.75-1.8661,3.7002-2.6013,7.8038-3.316,21.904-3.8148,8.2148-0.29062,12.25-0.0851,12.25,0.62378,0,0.58143,0.87344,1.0572,1.941,1.0572,1.0675,0,2.2191,0.45,2.559,1,0.33992,0.55,1.5345,1,2.6546,1s3.2311,0.84207,4.691,1.8713c3.8527,2.7161,11.249,6.1287,13.283,6.1287,0.96424,0,1.9919,0.38634,2.2838,0.85853,0.59796,0.96753,11.01,2.4173,17.087,2.3792,5.9504-0.0373,14.466-1.374,15.08-2.367,0.29599-0.47892,1.3659-0.87077,2.3776-0.87077s4.4726-1.4159,7.691-3.1465,6.8647-3.6431,8.1031-4.25c1.2383-0.60691,2.5062-1.891,2.8174-2.8535,0.31124-0.9625,1.0208-1.75,1.5769-1.75,0.8776,0,6.3517-5.39,9.3621-9.2183,4.5265-5.7563,7.7996-12.13,9.9014-19.282,0.96987-3.3,1.914-6.45,2.0981-7,1.1833-3.5352,0.18739,9.1011-1.1378,14.436-4.8557,19.549-20.264,36.897-39.224,44.161-7.0906,2.7169-23.744,3.7361-32,1.9584-3.105-0.66853-10.595-3.6109-16.645-6.5386-13.616-6.5889-17.861-7.7691-28.044-7.7961-13.719-0.0363-25.389,5.2462-37.829,17.125-8.8369,8.4379-17.064,23.136-18.836,33.653-0.18539,1.1-0.61726,1.55-0.9597,1zm295.73-114.75c-0.26325-1.2375-1.1839-5.8439-2.0458-10.236-3.6109-18.401-11.17-40.163-19.768-56.91-29.72-57.88-86.12-97.25-156.86-109.48-49.03-8.48-103.32-3.19-149.88,14.59-30.968,11.831-60.012,29.253-89.414,53.633-6.6472,5.5119-12.315,10.277-12.595,10.589-0.27976,0.31181-1.8516,1.6919-3.4928,3.0669l-2.9842,2.5,1.9928-2.5c6.7957-8.5251,31.437-33,33.225-33,0.22607,0,0.99118-0.5625,1.7002-1.25,3.8681-3.7505,7.6716-6.75,8.5593-6.75,0.55476,0,1.0087-0.37396,1.0087-0.83102s1.2375-1.4665,2.75-2.2432c1.5125-0.77669,3.4778-2.2027,4.3673-3.169,0.88951-0.96626,2.127-1.7568,2.75-1.7568,0.62298,0,1.1327-0.45,1.1327-1s0.675-1,1.5-1,1.5-0.45,1.5-1,0.59015-1,1.3114-1c0.72129,0,2.2067-0.7875,3.3009-1.75s3.0407-2.3548,4.3256-3.094c7.8792-4.5332,10.293-5.8599,16.95-9.3182,4.0635-2.1108,8.001-3.8378,8.75-3.8378,0.74902,0,1.3619-0.45,1.3619-1s0.9-1,2-1,2-0.45,2-1,1.125-1,2.5-1,2.5-0.45,2.5-1,1.125-1,2.5-1,2.5-0.45,2.5-1,0.90611-1,2.0136-1c1.9441,0,2.9088-0.35523,7.7229-2.8439,1.23-0.63587,3.3675-1.1561,4.75-1.1561s2.5136-0.45,2.5136-1,1.125-1,2.5-1,2.5-0.40273,2.5-0.89496c0-0.84338,1.292-1.1388,11.75-2.6862,2.3375-0.34589,4.25-0.98818,4.25-1.4273,0-0.43915,2.1375-1.0426,4.75-1.3409,2.6125-0.29837,7.45-1.0198,10.75-1.6033,15.22-2.6909,24.684-3.3676,47-3.3606,25.866,0.008,38.897,1.1804,57.5,5.173,2.475,0.53117,6.1984,1.2907,8.2743,1.6878,2.0759,0.39713,4.0149,1.1114,4.309,1.5873,0.3,0.47,1.83,0.86,3.42,0.86,1.5851,0,3.1601,0.45,3.5,1,0.33992,0.55,1.7226,1,3.0726,1s3.2359,0.3975,4.191,0.88333c1.7145,0.87217,5.3654,2.4358,10.236,4.3843,1.375,0.55,3.625,1.45,5,2s3.4,1.3417,4.5,1.7594c6.0609,2.3014,21.684,10.399,24.142,12.513,1.5719,1.3518,3.6454,2.4584,4.608,2.4591,0.9625,0.00067,1.75,0.45122,1.75,1.0012,0,0.55,0.675,1,1.5,1s1.5,0.45,1.5,1,0.675,1,1.5,1,1.5,0.35298,1.5,0.78439c0,0.43142,1.2375,1.5168,2.75,2.4119,1.5125,0.89514,3.7246,2.4547,4.9158,3.4656,5.2528,4.458,6.3889,5.3381,6.8911,5.3381,0.29371,0,1.597,1.0125,2.8962,2.25,9.7437,9.281,16.561,16.185,19.547,19.796,1.925,2.328,4.7303,5.6325,6.234,7.3432s2.7412,3.3791,2.75,3.7074c0.014,0.5243,1.3181,2.2491,5.0017,6.6154,0.56257,0.66682,1.5431,2.3543,2.1791,3.75,0.63591,1.3957,1.4512,2.5376,1.8118,2.5376,0.36059,0,1.9461,2.7,3.5234,6s3.235,6,3.6839,6c0.44887,0,0.81613,0.9,0.81613,2s0.44143,2,0.98095,2,1.2865,1.2375,1.6599,2.75c0.37341,1.5125,1.4626,4.325,2.4203,6.25,6.959,13.987,14.937,40.594,16.94,56.5,0.55421,4.4,1.2808,9.4625,1.6146,11.25,0.67628,3.6216-0.30159,4.5474-1.0562,1z"/>
 </g>
</svg>
