<?xml version="1.0" encoding="UTF-8" standalone="no"?>
<!-- Created with Inkscape (http://www.inkscape.org/) -->
<svg id="svg3082" xmlns:inkscape="http://www.inkscape.org/namespaces/inkscape" xmlns:rdf="http://www.w3.org/1999/02/22-rdf-syntax-ns#" xmlns="http://www.w3.org/2000/svg" sodipodi:docname="বৈশাখী_টেলিভিশন.png" height="233" width="264" version="1.1" xmlns:cc="http://creativecommons.org/ns#" xmlns:dc="http://purl.org/dc/elements/1.1/" inkscape:version="0.48.4 r9939" xmlns:sodipodi="http://sodipodi.sourceforge.net/DTD/sodipodi-0.dtd">
 <metadata id="metadata3088">
  <rdf:RDF>
   <cc:Work rdf:about="">
    <dc:format>image/svg+xml</dc:format>
    <dc:type rdf:resource="http://purl.org/dc/dcmitype/StillImage"/>
    <dc:title/>
   </cc:Work>
  </rdf:RDF>
 </metadata>
 <sodipodi:namedview id="namedview3084" bordercolor="#666666" inkscape:pageshadow="2" guidetolerance="10" pagecolor="#ffffff" gridtolerance="10" inkscape:window-maximized="1" inkscape:zoom="0.5" objecttolerance="10" borderopacity="1" inkscape:current-layer="svg3082" inkscape:cx="285.67528" inkscape:cy="126.78725" inkscape:window-y="-8" inkscape:window-x="-8" inkscape:window-width="1600" showgrid="false" inkscape:pageopacity="0" inkscape:window-height="838"/>
 <g id="g3092" transform="matrix(0.27362127,0,0,0.27362127,-7.2038294,-9.3123)">
  <path id="path3096" inkscape:connector-curvature="0" fill="#d4181f" d="M74.5,879.65c-15.411-5.09-27.337-17.88-30.453-32.65-0.8-3.79-1.065-17.75-0.853-45l0.306-39.5,10.25-0.28,10.25-0.29v18.48,18.48l5.75-2.5504c6.8771-3.0503,18.333-4.1309,26.11-2.4629,13.471,2.8891,25.577,12.423,31.298,24.648,3.8986,8.3312,4.9424,20.642,2.527,29.804-3.2569,12.355-13.98,24.868-25.358,29.59-7.1067,2.9495-23.303,3.8907-29.828,1.7334zm23.71-20.93c7.35-4.32,11.79-12.48,11.79-21.67,0-14.342-9.8956-24.409-24-24.416-7.455-0.004-11.165,1.5734-16.413,6.9766-4.4905,4.6237-6.0266,9.1651-6.0503,17.887-0.03013,11.088,5.4098,19.682,14.702,23.226,5.1034,1.9465,14.919,0.9585,19.971-2.0102zm74.682,19.984c-8.2949-3.4934-12.281-6.2272-17.429-11.953-7.7807-8.6541-11.429-17.985-11.451-29.287-0.0347-17.639,9.3956-32.612,25.546-40.563,8.2972-4.0847,20.782-5.0974,29.997-2.4331,28.047,8.1095,40.72,38.875,26.692,64.797-3.6183,6.6859-12.039,14.276-19.988,18.016-6.0298,2.8371-7.8906,3.2126-17.259,3.4826-9.2004,0.26518-11.194,0.0103-16.108-2.0591zm26.793-20.265c9.534-5.5664,13.868-18.949,9.8368-30.375-3.3468-9.486-9.711-14.181-20.13-14.849-6.0138-0.38594-7.9976-0.0964-11.734,1.7124-13.069,6.3266-17.031,26.888-7.426,38.541,6.9963,8.4877,19.745,10.639,29.453,4.9709zm99.16,21.171c-5.4038-1.9303-11.947-6.0099-15.308-9.5445l-2.9633-3.1166,6.6094-6.6094,6.6094-6.6094,4.4322,3.183c5.1277,3.6824,12.579,6.1968,15.944,5.3802,1.2823-0.31113,3.3439-1.482,4.5814-2.602,4.9183-4.4511,1.9244-8.4326-11.838-15.744-12.738-6.7668-19.135-12.805-21.495-20.291-2.1487-6.8164-1.335-12.814,2.5749-18.98,9.2752-14.625,33.878-15.634,47.252-1.9371l3.7434,3.834-6.3199,6.2637-6.3199,6.2637-5.274-3.5491c-5.8585-3.9425-11.068-4.6415-14.851-1.9924-4.951,3.4678-2.0576,7.0786,10.777,13.45,17.463,8.669,23.454,15.886,23.348,28.128-0.1013,11.69-5.8081,19.645-17.135,23.886-6.2078,2.3243-18.664,2.6238-24.368,0.58602zm177.66-0.43c-13.426-5.7225-22.498-15.986-26.105-29.533-1.759-6.6061-1.7572-18.7,0.004-25.313,3.3422-12.553,11.788-23.192,22.333-28.133,5-2.35,7.04-2.71,15.27-2.71,8.3446,0,10.254,0.34817,15.697,2.8628,3.4084,1.5746,6.9657,3.7121,7.905,4.75,2.56,2.83,3.4,2.31,3.4-2.11v-4h10.5,10.5v42,42h-10.442-10.442l-0.3075-4.0472-0.3075-4.0472-4.2769,3.1535c-2.3523,1.7344-6.5196,4.0057-9.2607,5.0472-6.4474,2.4498-18.804,2.4887-24.462,0.077zm28.522-20.579c5.3841-3.563,8.8201-9.1024,10.179-16.41,2.1418-11.517-1.9771-21.627-10.963-26.909-6.1823-3.6341-15.546-3.8635-21.874-0.53578-14.685,7.723-16.726,31.361-3.643,42.183,4.9291,4.0772,8.4085,5.0847,16.06,4.6498,4.6959-0.26689,7.2798-1.0183,10.241-2.9782zm-257.8-21.35,0.28-41.75l10.25-0.28498,10.25-0.28499v42.035,42.035h-10.529-10.529l0.27923-41.75zm110.24,40.5c-0.26303-0.6875-0.36141-26.9-0.21862-58.25l0.25962-57,9.9174-0.28823c5.8937-0.17129,10.17,0.11984,10.539,0.71757,0.34189,0.55319,0.54272,9.0641,0.44629,18.913-0.0964,9.849,0.17701,18.477,0.60763,19.174,0.59676,0.96557,1.5549,0.71719,4.0288-1.0444,16.13-11.486,36.79-8.286,45.377,7.0278l3.0841,5.5,0.3112,33.25,0.31119,33.25h-10.561-10.561l-0.022-27.25c-0.0199-24.707-0.2011-27.645-1.9419-31.479-5.7507-12.668-22.473-10.199-28.64,4.2293-1.4084,3.2952-1.7746,8.1408-2.0784,27.5-0.20286,12.925-0.35742,24.288-0.34346,25.25,0.0225,1.552-1.1093,1.75-10.006,1.75-7.1034,0-10.171-0.36486-10.51-1.25zm200.54-57.28v-58.535l10.25,0.28499,10.25,0.28498,0.5,33.234,0.5,33.234,5.5-6.2196c3.025-3.4208,9.9199-11.064,15.322-16.984l9.82-10.76h13.124,13.124l-3.0347,3.25c-13.209,14.146-32.355,36.08-32.345,37.054,0.007,0.65772,2.1443,3.4558,4.75,6.218s7.637,8.1622,11.181,12c3.5437,3.8378,9.3937,10.13,13,13.982,3.6063,3.8522,7.4142,8.0147,8.462,9.25l1.92,2.25h-12.99-12.99l-17.41-19.04-17.42-19.03-0.27,19.03-0.27,19.04h-10.48-10.48v-58.535zm91.636,53.895c-0.83551-6.0957-0.82259-87.998,0.016-101.7l0.64-10.66h9.848,9.848v19.441c0,10.985,0.4068,19.692,0.93528,20.019,0.51441,0.31792,3.0546-0.76603,5.645-2.4088,14.429-9.1509,32.124-7.4837,41.554,3.9152,5.3742,6.4965,5.8657,10.243,5.8657,44.715v31.318h-9.8511-9.8511l-0.53374-27.256c-0.58-29.45-1-31.92-6.22-36.74-2.2462-2.0726-3.7089-2.5-8.5555-2.5-6.8398,0-9.8796,1.7994-14.452,8.5548-2.6698,3.9442-3.03,5.4526-3.6802,15.409-0.3964,6.0701-0.75213,18.124-0.79051,26.786l-0.07,15.75h-9.8641-9.8641l-0.63593-4.6396zm92.63-37.11,0.23-41.75h10.5,10.5l0.25068,41.75,0.25069,41.75h-10.986-10.986l0.23487-41.75zm87.73,8.75v-33h-5.5-5.5v-9-9h5.5,5.5v-15.5-15.5h10.5,10.5v15.452,15.452l6.2482,0.29771,6.2482,0.29772-0.19709,7c-0.10839,3.85-0.22008,7.7875-0.2482,8.75-0.0428,1.4665-1.023,1.75-6.0511,1.75h-6v33,33h-10.5-10.5v-33zm71.638,32.224c-0.38-0.61-33.32-77-35.34-81.97-0.39-0.96,2.08-1.25,10.5-1.25h11.009l0.968,2.75c0.5324,1.5125,5.1502,12.575,10.262,24.583,7.6719,18.023,9.4758,21.513,10.338,20,0.57-1.01,5.38-11.95,10.69-24.33l9.6502-22.5,10.762-0.28505c8.462-0.22413,10.647-0.0104,10.223,1-1.4574,3.4735-25.007,58.887-29.763,70.033l-5.44,12.76-6.691,0.002c-3.68,0.001-6.9069-0.34707-7.1709-0.77414zm-646.56-90.978c-8.2535-1.4658-13.154-12.616-8.9763-20.426,3.1101-5.8143,13.798-8.1896,19.177-4.2618,11.612,8.4787,3.881,27.189-10.201,24.688zm495.05-0.32202c-5.1581-1.1054-9.2347-5.7732-9.856-11.285-0.91598-8.1265,3.086-13.675,10.924-15.145,4.6711-0.8763,10.373,1.7381,12.928,5.9271,2.1195,3.4758,2.4705,10.202,0.73155,14.019-2.167,4.7561-8.9195,7.7293-14.727,6.4846zm-193.13-217.48c-7.425-0.71122-16.425-1.8203-20-2.4647-3.575-0.64435-8.525-1.5397-11-1.9896-2.475-0.44994-6.3-1.3355-8.5-1.9679-2.2-0.63243-5.575-1.5113-7.5-1.953-4.0446-0.92816-18.551-5.7052-21.5-7.0802-1.1-0.51283-4.665-1.9053-7.9222-3.0943-8.9965-3.2842-31.143-14.955-42.735-22.521-25.7-16.79-50.31-39.96-68.91-64.88-4.0916-5.483-5.9676-8.2548-11.507-17-2.06-3.26-13.42-23.71-13.42-24.17,0-0.15454-1.2916-3.1047-2.8702-6.556-25.82-56.44-30.29-122.43-12.43-183.27,4.9328-16.8,17.402-45.724,24.554-56.955,0.68482-1.0755,3.5375-5.5755,6.3393-10,8.4642-13.366,25.823-35.461,26.963-34.32,0.21503,0.21503,0.55659,44.015,0.75901,97.333,0.39251,103.39,0.38143,103.15,5.6409,124.94,13.264,54.969,52.573,103.82,107.37,133.45,20.042,10.834,46.415,19.418,67.643,22.016,10.955,1.3408,40.181,1.334,51.052-0.0119,45.579-5.6424,85.906-25.608,118.74-58.791,16.534-16.707,27.905-32.281,37.823-51.799,10.138-19.952,14.282-38.127,16.517-72.442,2.655-40.757-4.2945-80.56-19.647-112.53-25.771-53.663-81.012-95.352-143.29-108.14-11.449-2.3503-14.902-2.6057-35.676-2.6388-17.961-0.0286-25.191,0.35955-33,1.7718-20.78,3.758-39.06,9.3364-55.686,16.993-3.09,1.45-5.91,2.63-6.22,2.63s-0.56-14.8-0.56-32.879v-32.879l2.75-1.078c9.9976-3.9189,36.685-9.3933,54.708-11.222,16.97-1.722,50.4-0.708,66.54,2.019,39.84,6.731,73.72,20.067,105.71,41.605,5.26,3.539,9.87,6.434,10.24,6.434,0.37741,0,1.6133,1.0125,2.7465,2.25s3.5431,3.375,5.3554,4.75c12.961,9.8334,32.584,30.066,44.238,45.613,35.502,47.359,53.707,101.21,53.707,158.86-0.00012,15.545-2.5287,41.587-5.149,53.03-5.4214,23.675-17.649,58.191-23.912,67.5-0.92513,1.375-2.9182,4.953-4.4291,7.9511s-3.5163,6.5981-4.4566,8c-0.94025,1.4019-3.4722,5.2489-5.6266,8.5489-28.385,43.479-73.633,80.319-121.93,99.268-41.657,16.346-78.856,21.756-121.5,17.671zm16.5-171.56c-32.056-7.3654-58.087-30.58-68.578-61.158-3.6567-10.658-4.9047-18.75-4.914-31.865-0.034-47.956,34.778-87.155,82.492-92.887,54.894-6.5945,104.49,41.221,101.16,97.53-0.65883,11.146-2.5358,20.975-5.1563,27-4.6243,10.633-8.0601,18.047-8.5725,18.5-0.3113,0.275-1.9919,2.596-3.7346,5.1579-4.854,7.1352-15.856,17.765-24.417,23.592-4.2426,2.8875-7.934,5.25-8.203,5.25-0.26902,0-3.3218,1.3113-6.784,2.914s-7.4199,3.1328-8.7949,3.4003c-1.375,0.26744-5.1095,1.2061-8.2988,2.086-6.4685,1.7845-29.211,2.0859-36.201,0.47976z"/>
  <path id="path3094" inkscape:connector-curvature="0" fill="#008a44" d="M199.5,711.38c-25.86-2.09-53.02-10.08-73.01-21.47-27.892-15.89-50.436-39.83-66.855-70.98-10.19-19.33-17.675-40-22.126-61.08l-2.509-11.88,0.006-174.74c0.006-184.8-0.032-183.1,4.523-199.73,0.90417-3.3,1.9989-7.35,2.4326-9,2.031-7.73,8.978-22.44,14.871-31.5,16.57-25.47,39.608-43.639,75.167-59.271,11.432-5.0256,34.158-11.443,54-15.248,11.447-2.1952,40.017-2.9695,59-1.5991,8.525,0.61545,27.65,2.0068,42.5,3.092,14.85,1.0851,36.45,2.6467,48,3.4702s24.6,1.9558,29,2.5162c4.4,0.56039,15.425,1.4828,24.5,2.0499,9.075,0.56705,20.55,1.4609,25.5,1.9863,8.2759,0.87844,19.515,1.8935,39.852,3.5992l7.8522,0.65859-6.6759,3.8729c-3.66,2.13-6.88,3.873-7.14,3.873-0.42,0-10.27,6.479-21.88,14.399-12.65,8.631-36.74,31.241-47.5,44.601-8.0143,9.9478-14.611,18.971-19.406,26.542-2.8018,4.4245-5.6545,8.9245-6.3393,10-3.6916,5.7976-13.042,25.327-17.175,35.873-12.313,31.414-18.088,62.055-18.07,95.871,0.0205,38.867,7.649,74.661,23.121,108.49,1.5786,3.4513,2.8702,6.4015,2.8702,6.556,0,0.45844,11.356,20.91,13.42,24.169,5.5391,8.7452,7.4152,11.517,11.507,17,18.599,24.924,43.214,48.094,68.916,64.868,11.592,7.566,33.739,19.237,42.735,22.521,3.2572,1.189,6.8222,2.5815,7.9222,3.0943,2.9492,1.375,17.455,6.152,21.5,7.0802,1.925,0.44175,5.3,1.3206,7.5,1.953,9.444,2.7148,29.101,5.6039,48.307,7.0998,43.998,3.4269,90.46-6.2621,134.19-27.984,38.316-19.032,76.701-53.291,100.43-89.632,2.1544-3.3,4.6863-7.147,5.6266-8.5489,0.94026-1.4019,2.9457-5.0019,4.4566-8s3.5039-6.5761,4.4291-7.9511c6.2634-9.3092,18.491-43.825,23.912-67.5,2.6203-11.443,5.1489-37.485,5.149-53.03,0.00044-57.741-18.196-111.49-53.849-159.05-9.2598-12.353-27.656-31.957-38.006-40.502-2.9452-2.4316-6.2765-5.2086-7.403-6.1711s-2.3211-1.75-2.6546-1.75c-0.33355,0-1.2041-0.957-1.9346-2.1267-1.2952-2.0739-1.2204-2.1111,3.0094-1.4976,2.3857,0.34601,16.111,1.5247,30.501,2.6194,31.796,2.4188,45.136,4.2145,60.241,8.1091,47.167,12.162,86.592,47.465,110.27,98.747,7.7668,16.818,14.09,36.589,15.24,47.648,3.6434,35.053,5.9013,57.411,7.5741,75,1.0985,11.55,2.4371,24.825,2.9747,29.5,0.53764,4.675,1.6878,16.15,2.556,25.5,0.86813,9.35,2.2186,23.75,3.0011,32,1.9993,21.08,5.309,57.869,6.4324,71.5,0.52128,6.325,1.4306,16.931,2.0206,23.568,1.2809,14.408,0.18077,32.008-2.9647,47.432-5.4689,26.817-16.014,47.44-33.827,66.159-13.346,14.024-23.081,21.078-41.686,30.202-18.373,9.0105-33.083,13.119-50.5,14.104-6.325,0.3577-20.05,1.291-30.5,2.074-10.45,0.78303-26.2,1.8944-35,2.4696-22.621,1.4788-68.071,4.6101-101.5,6.9931-15.675,1.1174-41.55,2.9081-57.5,3.9794-29.323,1.9695-64.491,4.3856-116.5,8.0038-15.675,1.0905-41.775,2.8932-58,4.006s-36.025,2.4868-44,3.0533c-43.091,3.0609-73.727,5.1691-101.5,6.9846-17.05,1.1146-39.775,2.691-50.5,3.5032-20.655,1.5642-52.147,2.5283-60.5,1.8522zm388.23-312.1c1.7752-0.22091,4.9252-0.22454,7-0.008,2.0748,0.21648,0.6223,0.39722-3.2277,0.40166-3.85,0.004-5.5475-0.17268-3.7723-0.39359zm21.543-1.8824c0.33229-0.33229,1.1948-0.36781,1.9167-0.0789,0.79773,0.31922,0.56078,0.55618-0.60417,0.60416-1.0542,0.0434-1.6448-0.19293-1.3125-0.52522zm7-2c0.33229-0.33229,1.1948-0.36781,1.9167-0.0789,0.79773,0.31922,0.56078,0.55618-0.60417,0.60416-1.0542,0.0434-1.6448-0.19293-1.3125-0.52522zm13.73-4.9c1.375-0.78602,2.95-1.4291,3.5-1.4291s-0.125,0.64311-1.5,1.4291c-1.375,0.78602-2.95,1.4291-3.5,1.4291s0.125-0.64311,1.5-1.4291zm12-7c0.68469-0.825,1.4699-1.5,1.7449-1.5s-0.0602,0.675-0.74489,1.5-1.4699,1.5-1.7449,1.5,0.0602-0.675,0.74489-1.5zm7-5c1.2918-1.375,2.5736-2.5,2.8486-2.5s-0.55688,1.125-1.8486,2.5c-1.2918,1.375-2.5736,2.5-2.8486,2.5s0.55688-1.125,1.8486-2.5zm5.0172-3.9095c0.81552-1.0502,3.6805-4.2002,6.3666-7l4.8838-5.0905-4.0225,5c-2.2124,2.75-5.0773,5.9-6.3666,7-2.1408,1.8266-2.2155,1.8344-0.86134,0.0905zm23.01-35.09c0-0.55,0.43621-1.675,0.96937-2.5s0.96937-1.05,0.96937-0.5-0.43621,1.675-0.96937,2.5-0.96937,1.05-0.96937,0.5zm6.0483-23.917c-0.0434-1.0542,0.19293-1.6448,0.52522-1.3125,0.33229,0.33229,0.36781,1.1948,0.0789,1.9167-0.31922,0.79773-0.55618,0.56078-0.60416-0.60417z"/>
 </g>
</svg>
