<?xml version="1.0" encoding="UTF-8" standalone="no"?>
<!-- Created with Inkscape (http://www.inkscape.org/) -->
<svg id="svg3701" xmlns:inkscape="http://www.inkscape.org/namespaces/inkscape" xmlns:rdf="http://www.w3.org/1999/02/22-rdf-syntax-ns#" xmlns="http://www.w3.org/2000/svg" sodipodi:docname="channel9_bd.png" height="275" width="350" version="1.1" xmlns:cc="http://creativecommons.org/ns#" xmlns:dc="http://purl.org/dc/elements/1.1/" inkscape:version="0.48.4 r9939" xmlns:sodipodi="http://sodipodi.sourceforge.net/DTD/sodipodi-0.dtd">
 <metadata id="metadata3707">
  <rdf:RDF>
   <cc:Work rdf:about="">
    <dc:format>image/svg+xml</dc:format>
    <dc:type rdf:resource="http://purl.org/dc/dcmitype/StillImage"/>
    <dc:title/>
   </cc:Work>
  </rdf:RDF>
 </metadata>
 <sodipodi:namedview id="namedview3703" inkscape:showpageshadow="false" inkscape:zoom="0.5" borderopacity="1" inkscape:current-layer="svg3701" inkscape:cx="263.22201" inkscape:cy="233.12139" borderlayer="true" inkscape:window-maximized="1" showgrid="false" bordercolor="#66e666" inkscape:window-x="-8" guidetolerance="10" objecttolerance="10" inkscape:window-y="-8" inkscape:window-width="1600" inkscape:pageopacity="0" inkscape:pageshadow="2" pagecolor="#ffffff" gridtolerance="10" inkscape:window-height="838" showborder="true"/>
 <path id="path3711-4" inkscape:connector-curvature="0" fill="#672d8a" d="m19.453,272.22c-2.3237-0.45921-6.6859-2.5512-8.7829-4.212-2.5292-2.0032-5.6429-6.5373-6.9175-10.073l-1.077-2.9877-0.11919-96.729c-0.1056-85.741-0.039-97.05,0.5869-99.519,2.095-8.266,8.4768-14.722,16.162-16.351,1.432-0.304,15.09-0.427,38.61-0.347l36.393,0.12291-3.5423,3.6772c-8.8555,9.1929-14.63,18.905-17.765,29.877-1.9417,6.7967-2.2977,9.745-2.2754,18.846,0.01793,7.2397,0.19411,9.5196,1.0316,13.33,2.798,12.73,7.5288,22.324,15.979,32.406,14.222,16.968,40.903,32.775,65.12,38.582,11.476,2.7516,26.191,4.6258,36.318,4.6258h3.7369l-4.3195,4.4816c-2.3758,2.4649-6.4008,6.6535-8.9446,9.308s-9.9978,10.416-16.564,17.247c-6.5667,6.8316-16.385,17.07-21.818,22.753-15.637,16.354-20.06,20.954-26.363,27.413-3.2471,3.3276-6.2063,6.4821-6.5761,7.0101l-0.67235,0.95992-43.296-0.0529c-23.813-0.029-44.02-0.19593-44.905-0.37079zm21.488-12.635c3.3022-1.512,6.1419-4.3256,7.0394-6.9747,0.78279-2.3107,0.81708-8.2071,0.06031-10.367-0.81648-2.3305-3.4802-4.9167-6.3891-6.2031-3.9556-1.7494-4.3794-1.5967-5.5932,2.015-0.57346,1.7065-1.1403,3.3365-1.2596,3.6223-0.12737,0.3051,0.48953,0.65218,1.4941,0.84064,2.4428,0.45827,4.7642,2.8914,4.7642,4.9936,0,3.7603-3.9827,5.7047-10.789,5.2676-5.2695-0.33841-8.0563-2.2994-8.0563-5.6691,0-1.1761,1.928-3.4912,3.8086-4.5734,0.75296-0.43325,0.74248-0.66506-0.18225-4.0351-1.1029-4.0193-0.95838-3.9646-5.0467-1.9104-4.2544,2.1376-6.1557,5.553-6.1246,11.002,0.0239,4.1534,0.79028,6.3389,3.1034,8.8484,3.4999,3.7969,6.4006,4.7059,14.554,4.5609,5.2277-0.093,6.0045-0.22078,8.6173-1.4171zm7.3733-33.262-0.13266-4.0107-6.7799-0.1272-6.7799-0.1272,0-4.572,0-4.572,6.7799-0.1272,6.7799-0.1272,0-4.1369,0-4.1369-16.433-0.12072-16.433-0.12071,0,4.3725,0,4.3725,5.7457,0,5.7457,0,0,4.5965,0,4.5965-5.7457,0-5.7457,0-0.000184,4.2518-0.000184,4.2518,16.565-0.12621,16.565-0.12621-0.13261-4.0107zm-0.00046-29.177-0.1322-4.2518-2.0684-0.61275c-1.1376-0.33702-2.327-0.6925-2.643-0.78997-0.41111-0.1268-0.57457-1.5274-0.57457-4.9236v-4.7464l2.643-0.66897,2.643-0.66897,0.13477-3.8686c0.0741-2.1278,0.03769-4.1212-0.08062-4.4298-0.20698-0.53938-2.5698,0.13997-27.289,7.8459l-5.6308,1.7554v4.7337,4.7337l5.1711,1.6122c22.752,7.0933,27.279,8.4892,27.596,8.5091,0.19908,0.0125,0.3025-1.8906,0.22983-4.2291zm-18.288-8.9051c-2.4017-0.61722-4.677-1.2454-5.0562-1.396-0.60072-0.23859,8.466-2.8704,9.9975-2.902,0.39714-0.008,0.57457,0.83985,0.57457,2.7461,0,1.9222-0.17407,2.7452-0.57457,2.7161-0.31601-0.023-2.5396-0.54685-4.9413-1.1641zm18.386-23.386,0-3.907-9.0781-0.027c-6.1832-0.0184-8.8582-0.17281-8.3887-0.48418,0.37921-0.25143,4.4127-2.5663,8.9632-5.1441l8.2738-4.6869v-3.907-3.907l-16.433-0.12072-16.433-0.12072v4.1325,4.1325l8.6025,0.12506,8.6025,0.12505-8.6025,4.8212-8.6025,4.8212v4.0271,4.0271h16.548,16.548v-3.907zm-0.22983-31.946,0-3.907-8.712-0.22982-8.712-0.22983,8.712-4.9038,8.712-4.9038,0.13284-3.9446,0.13279-3.9446-16.565,0-16.565,0,0,3.8971,0,3.8971,8.8483,0.12484,8.8483,0.12484-8.7334,4.8885-8.7334,4.8885-0.13224,4.1955-0.13224,4.1955,16.45-0.12074,16.45-0.12073,0-3.9071zm0-39.3,0-11.491-3.7921-0.1335-3.7921-0.1335,0,7.373,0,7.373-3.2176,0-3.2176,0,0-6.6851,0-6.6851-3.3325,0.13505-3.3325,0.13505-0.12751,6.5501-0.12755,6.55-2.5155,0-2.5155,0,0-7.1246,0-7.1246-3.4474,0-3.4474,0,0,11.497,0,11.497,16.433-0.12072,16.433-0.12071,0-11.491zm0.123-26.988-0.124-10.687-4.009-0.133-4.009-0.132l-0.12764,6.5678-0.12765,6.5678-12.296,0.12241-12.296,0.12243v4.1294,4.1294h16.556,16.556l-0.122-10.686zm150.48,205.24c0.99975-1.2664,22.788-26.146,40.579-46.337,1.7926-2.0344,10.602-12.06,19.577-22.279,8.9747-10.219,17.352-19.736,18.616-21.149,1.264-1.4129,3.5562-4.0047,5.0936-5.7596s5.339-6.0866,8.4479-9.6259c14.852-16.908,30.198-40.191,34.387-52.171,2.7995-8.0061,3.5188-12.321,3.5246-21.144,0.007-11.393-1.5001-17.901-6.4419-27.809-3.68-7.344-7.82-12.885-15.14-20.248-21.58-21.684-51.53-35.005-86.65-38.535-15.25-1.5337-35.6-1.1688-49.62,0.89-2.3914,0.35104-4.422,0.56426-4.5124,0.4738-0.30929-0.30929,13.448-3.4052,19.203-4.3212,11.263-1.7929,16.431-2.1404,31.716-2.1322,14.628,0.008,19.1,0.29087,29.648,1.8767,32.379,4.8681,59.823,18.111,79.917,38.563,10.374,10.56,17.079,22.573,19.881,35.625,1.1432,5.324,1.1727,18.461,0.0527,23.442-3.0587,13.603-8.0134,23.248-22.017,42.856-6.6474,9.3081-9.4787,12.912-16.7,21.259-3.0337,3.5066-10.451,12.079-16.484,19.049-6.0324,6.9703-12.651,14.626-14.709,17.013-2.0574,2.3868-4.6716,5.3966-5.8092,6.6884s-14.169,16.347-28.958,33.456l-26.89,31.108-8.6748,0.0105c-8.1762,0.01-8.6385-0.0354-8.0439-0.78866zm-3.51-139.73c-23.448-1.3285-43.014-13.974-46.955-30.348-1.4634-6.0791-0.78056-14.196,1.658-19.709,3.3142-7.4923,11.333-14.87,21.395-19.683,9.1521-4.3779,16.488-5.9128,28.498-5.9629,8.4862-0.0354,11.475,0.2748,17.467,1.8127,14.272,3.6631,26.783,12.695,31.887,23.021,3.4623,7.0037,4.0025,15.938,1.418,23.45-4.2368,12.315-18.229,22.728-35.144,26.155-3.9514,0.80056-13.943,1.6926-16.701,1.491-0.9266-0.0677-2.5121-0.17003-3.5233-0.22733z"/>
</svg>
